<?xml version="1.0" encoding="UTF-8"?>
<!DOCTYPE svg PUBLIC "-//W3C//DTD SVG 1.1//EN" "http://www.w3.org/Graphics/SVG/1.1/DTD/svg11.dtd">
<svg xmlns="http://www.w3.org/2000/svg" version="1.1" width="500px" height="500px" style="shape-rendering:geometricPrecision; text-rendering:geometricPrecision; image-rendering:optimizeQuality; fill-rule:evenodd; clip-rule:evenodd" xmlns:xlink="http://www.w3.org/1999/xlink">
<g><path style="opacity:0.888" fill="#fefffe" d="M 151.5,-0.5 C 152.833,-0.5 154.167,-0.5 155.5,-0.5C 154.962,2.1889 154.295,4.85556 153.5,7.5C 153.833,7.83333 154.167,8.16667 154.5,8.5C 156.745,5.68028 158.745,2.68028 160.5,-0.5C 161.167,-0.5 161.833,-0.5 162.5,-0.5C 160.291,9.7625 157.624,19.9292 154.5,30C 154.548,31.033 154.881,31.3663 155.5,31C 159.928,24.5473 162.262,17.3806 162.5,9.5C 163.5,9.5 164.5,9.5 165.5,9.5C 164.85,17.5922 163.184,25.4255 160.5,33C 161.935,35.2672 161.602,37.2672 159.5,39C 160.67,43.4985 159.837,47.6651 157,51.5C 156.508,56.8795 156.175,62.2128 156,67.5C 159.891,62.6068 163.391,57.4402 166.5,52C 167.635,51.2506 168.635,51.4173 169.5,52.5C 167.157,58.0452 163.99,63.0452 160,67.5C 157.546,72.7365 155.713,78.2365 154.5,84C 152.495,86.672 150.161,89.0053 147.5,91C 148.833,92 148.833,93 147.5,94C 143.541,93.6508 140.874,95.3174 139.5,99C 138.167,99.3333 136.833,99.6667 135.5,100C 136.448,100.483 137.448,100.649 138.5,100.5C 138.281,101.675 138.614,102.675 139.5,103.5C 144.686,98.4063 150.686,94.573 157.5,92C 158.944,91.2195 160.277,91.3861 161.5,92.5C 158.306,96.2053 155.473,100.205 153,104.5C 151.736,106.607 149.903,107.607 147.5,107.5C 146.037,111.703 143.037,114.036 138.5,114.5C 139.091,115.151 139.757,115.818 140.5,116.5C 139.289,117.72 139.289,118.887 140.5,120C 137.372,121.96 134.705,124.46 132.5,127.5C 124.567,129.278 118.9,133.778 115.5,141C 116.549,143.698 118.549,145.198 121.5,145.5C 123.687,144.242 126.02,143.242 128.5,142.5C 131.188,143.15 133.688,143.15 136,142.5C 136.692,143.025 137.192,143.692 137.5,144.5C 136.345,145.95 134.845,146.95 133,147.5C 132.517,148.448 132.351,149.448 132.5,150.5C 134.665,150.116 136.332,150.783 137.5,152.5C 134.633,153.774 131.633,154.607 128.5,155C 133.823,157.92 139.49,160.087 145.5,161.5C 146.583,162.365 146.749,163.365 146,164.5C 145.667,164.167 145.333,163.833 145,163.5C 143.601,164.227 142.101,164.727 140.5,165C 144.944,166.389 149.277,168.056 153.5,170C 156.689,172.754 160.023,175.254 163.5,177.5C 162.088,178.806 160.421,179.64 158.5,180C 164.275,183.284 169.609,187.117 174.5,191.5C 173.635,192.583 172.635,192.749 171.5,192C 167.833,189.667 164.167,187.333 160.5,185C 149.963,181.625 139.463,178.125 129,174.5C 128.5,174.833 128,175.167 127.5,175.5C 131.436,177.3 131.27,178.633 127,179.5C 119.613,177.214 112.447,174.548 105.5,171.5C 101.801,171.182 99.1347,172.682 97.5,176C 93.5193,177.549 89.5193,177.715 85.5,176.5C 78.6537,177.747 73.9871,181.581 71.5,188C 72.3995,190.192 73.3995,192.358 74.5,194.5C 72.674,194.92 70.674,194.92 68.5,194.5C 68.5,195.5 68.5,196.5 68.5,197.5C 66.0194,197.677 64.1861,196.677 63,194.5C 61.9349,188.189 61.6015,181.856 62,175.5C 65.4214,172.968 69.2547,171.301 73.5,170.5C 74.4938,167.103 74.1604,163.77 72.5,160.5C 62.3022,159.159 52.4689,156.492 43,152.5C 38.892,154.471 34.7253,156.304 30.5,158C 28.7866,159.378 27.4533,161.045 26.5,163C 25.5509,163.617 24.7175,163.451 24,162.5C 24.421,151.824 28.921,143.324 37.5,137C 40.1547,136.273 42.4881,135.106 44.5,133.5C 36.4825,126.649 28.9825,119.315 22,111.5C 15.7782,102.18 10.1115,92.513 5,82.5C 5.22463,77.6055 3.72463,73.4389 0.5,70C 2.99219,61.6415 2.65885,53.4748 -0.5,45.5C -0.5,36.5 -0.5,27.5 -0.5,18.5C 0.163485,16.9581 0.830151,15.2914 1.5,13.5C 2.08605,13.7093 2.58605,14.0426 3,14.5C 4.75098,21.5258 5.75098,28.5258 6,35.5C 7.11702,34.0506 7.78369,32.3839 8,30.5C 8.38995,23.8164 8.88995,17.1497 9.5,10.5C 10.5,10.5 11.5,10.5 12.5,10.5C 13.8238,23.9399 16.6571,37.2733 21,50.5C 23.4866,52.8089 25.4866,55.4756 27,58.5C 27.4152,56.7091 28.4152,55.3757 30,54.5C 36.1314,59.215 37.9647,65.0483 35.5,72C 36.8524,73.9644 37.6857,76.1311 38,78.5C 41.9424,81.5674 44.7757,85.4007 46.5,90C 46.1667,90.3333 45.8333,90.6667 45.5,91C 47.5989,93.4095 49.2656,96.0761 50.5,99C 50.1667,99.3333 49.8333,99.6667 49.5,100C 50.9961,100.507 52.1627,100.007 53,98.5C 54.4136,104.539 57.9136,108.873 63.5,111.5C 62.775,109.392 62.775,107.058 63.5,104.5C 65.7857,103.58 68.1191,103.58 70.5,104.5C 68.9592,107.99 68.2926,111.49 68.5,115C 71.1198,115.981 73.6198,117.147 76,118.5C 77.2896,116.646 78.7896,116.313 80.5,117.5C 91.5756,106.259 101.742,94.2588 111,81.5C 120.168,67.8352 128.835,53.8352 137,39.5C 142.696,26.4494 147.529,13.1161 151.5,-0.5 Z M 133.5,105.5 C 135.76,106.238 135.927,107.238 134,108.5C 133.517,107.552 133.351,106.552 133.5,105.5 Z M 138.5,114.5 C 137.067,117.21 134.9,119.21 132,120.5C 128.856,121.515 125.689,121.515 122.5,120.5C 127.172,115.447 132.505,113.447 138.5,114.5 Z"/></g>
<g><path style="opacity:0.669" fill="#fefffe" d="M 50.5,71.5 C 52.0174,71.5106 53.1841,72.1772 54,73.5C 55.3697,77.2755 56.5364,81.1088 57.5,85C 57.5163,88.5154 55.8496,90.3487 52.5,90.5C 52.5,89.5 52.5,88.5 52.5,87.5C 51.1667,87.5 49.8333,87.5 48.5,87.5C 46.5521,81.7569 47.2188,76.4236 50.5,71.5 Z"/></g>
</svg>
